<svg aria-hidden="true" style="position:absolute;width:0;height:0;overflow:hidden" xmlns="http://www.w3.org/2000/svg"><defs><symbol id="icon-antenna" viewBox="0 0 32 32"><path fill="#212121" style="fill:var(--color1, #212121)" d="m30.773 22.098-8.443-8.505.937-4.615c.242.094.499.144.758.146h.006a2.159 2.159 0 1 0-2.008-1.435l-4.96.605L8.972.161a.534.534 0 0 0-.377-.16.532.532 0 0 0-.373.155L6.709 1.66a.534.534 0 0 0 0 .754l.814.826a14.943 14.943 0 0 0 2.519 17.663.513.513 0 0 0 .146.098c-.034.18-.051.364-.052.547v6.187h-6.4a2.67 2.67 0 0 0-2.667 2.667v1.067c0 .295.239.533.533.533h24.533a.533.533 0 0 0 .533-.533v-1.067a2.67 2.67 0 0 0-2.667-2.667h-6.4v-2.742a15.09 15.09 0 0 0 3.049.32 14.854 14.854 0 0 0 7.04-1.783l.818.823a.534.534 0 0 0 .377.16.532.532 0 0 0 .373-.155l1.513-1.504a.534.534 0 0 0 0-.754zM23.28 6.233a1.066 1.066 0 1 1 .752 1.822h-.003a1.067 1.067 0 0 1-.747-1.823h-.002zm-1.256 3.505-.598 2.946-1.175-1.182 1.774-1.763zm-.605-.902-1.92 1.909-1.485-1.493 3.405-.415zM24.004 28.8a1.6 1.6 0 0 1 1.6 1.6v.533H2.137V30.4a1.6 1.6 0 0 1 1.6-1.6h20.267zm-7.467-2.133v1.067h-5.333v-1.067h5.333zM11.204 25.6v-4.053c0-1.294 1.196-2.347 2.667-2.347s2.667 1.053 2.667 2.347V25.6h-5.333zm6.4-1.696v-2.357c0-1.882-1.675-3.413-3.733-3.413a3.8 3.8 0 0 0-3.281 1.786A13.87 13.87 0 0 1 8.311 4.033l18.602 18.708a13.818 13.818 0 0 1-9.309 1.163zm11.289-.684L7.836 2.039l.755-.752 7.935 7.98c.004 0 .006.007.01.01l13.115 13.191-.757.752z"/><path fill="#2196f3" style="fill:var(--color2, #2196f3)" d="M13.876 20.267h-.005a1.6 1.6 0 1 0-.004 3.2h.005a1.6 1.6 0 1 0 .004-3.2zm.373 1.978a.534.534 0 0 1-.752-.756.534.534 0 0 1 .373-.155.532.532 0 0 1 .373.911h.005z"/></symbol><symbol id="icon-astronaut" viewBox="0 0 34 32"><path fill="#2196f3" style="fill:var(--color2, #2196f3)" d="M31.975 4.279a.506.506 0 0 0-.407-.343l-1.807-.263-.809-1.638c-.169-.345-.735-.345-.905 0l-.809 1.638-1.807.263a.504.504 0 0 0-.28.86l1.308 1.275-.309 1.8a.505.505 0 0 0 .732.531l1.616-.85 1.616.85a.504.504 0 0 0 .732-.531l-.309-1.8 1.308-1.275a.506.506 0 0 0 .127-.517zm-2.329 1.256a.504.504 0 0 0-.145.447l.181 1.054-.946-.497a.501.501 0 0 0-.47 0l-.947.497.181-1.054a.507.507 0 0 0-.145-.447l-.766-.747 1.058-.154a.505.505 0 0 0 .38-.276l.473-.959.473.959a.505.505 0 0 0 .38.276l1.058.154-.765.747zM26.451 19.413h-1.009v1.009h1.009v-1.009zM26.451 21.431h-1.009v1.009h1.009v-1.009zM27.46 20.422h-1.009v1.009h1.009v-1.009zM25.442 20.422h-1.009v1.009h1.009v-1.009zM22.919 24.963H21.91v1.009h1.009v-1.009zM22.919 26.981H21.91v1.009h1.009v-1.009zM23.928 25.972h-1.009v1.009h1.009v-1.009zM21.91 25.972h-1.009v1.009h1.009v-1.009zM16.865 22.945h-1.009v1.009h1.009v-1.009zM16.865 24.963h-1.009v1.009h1.009v-1.009zM17.874 23.953h-1.009v1.009h1.009v-1.009z"/><path fill="#2196f3" style="fill:var(--color2, #2196f3)" d="M15.856 23.953h-1.009v1.009h1.009v-1.009zM7.279 5.791H6.27V6.8h1.009V5.791zM7.279 7.809H6.27v1.009h1.009V7.809zM8.288 6.8H7.279v1.009h1.009V6.8zM6.27 6.8H5.261v1.009H6.27V6.8z"/><path fill="#212121" style="fill:var(--color1, #212121)" d="M25.109 13.394a1.675 1.675 0 0 0-1.124-.666 1.677 1.677 0 0 0-1.267.333l-1.185.908-1.795 1.341-1.285-.512c2.29-1.028 3.891-3.319 3.891-5.978 0-3.616-2.954-6.559-6.585-6.559S9.174 5.203 9.174 8.82c0 1.311.392 2.53 1.059 3.555l-2.614-.023h-.005c-.008 0-.015.004-.022.005a.498.498 0 0 0-.147.029c-.012.005-.025.007-.036.013l-.018.006-3.058 1.51h-.001l-1.791.861a.446.446 0 0 0-.06.033 1.684 1.684 0 0 0 .433 3.012 1.68 1.68 0 0 0 1.304-.122l1.313-.698 2.142-1.106 1.284-.008-5.148 5.123-.002.001-1.266 1.261c-.299.298-.464.693-.464 1.114s.164.817.464 1.115c.307.306.711.459 1.115.459s.808-.153 1.116-.459l1.243-1.238 1.647-1.23.852.849-1.666 1.659-.002.001-1.266 1.261c-.299.298-.464.693-.464 1.114s.165.817.464 1.115c.307.306.712.459 1.116.459s.809-.153 1.117-.459l3.293-3.279.001-.002.955-.946-.004-.004c.006-.006.015-.008.021-.015l4.887-5.352 3.283.467a.513.513 0 0 0 .248-.031c.017-.006.031-.014.047-.022.018-.009.037-.014.055-.026l3.04-2.018c.011-.008.017-.02.028-.028.012-.01.027-.014.038-.024l1.203-1.127a1.682 1.682 0 0 0 .2-2.234zM3.745 16.81a.675.675 0 0 1-.528.049.677.677 0 0 1-.201-1.192l1.243-.598.425 1.242-.938.499zm3.308-1.729-1.465.757-.415-1.214 1.917-.946-.037 1.404zm14.283-6.263c0 .869-.207 1.688-.567 2.421l-3.955-1.797a1.76 1.76 0 0 0-.746-1.313l1.385-4.598c2.249.715 3.883 2.814 3.883 5.286zm-11.151 0c0-3.06 2.501-5.55 5.576-5.55.239 0 .473.02.705.049l-1.355 4.497c-.018-.001-.035-.006-.054-.006-.977 0-1.771.792-1.771 1.766s.795 1.766 1.771 1.766c.657 0 1.224-.363 1.531-.894l3.654 1.66a5.576 5.576 0 0 1-4.481 2.261c-3.074 0-5.576-2.49-5.576-5.55zm5.634.757c0 .417-.342.757-.762.757s-.762-.339-.762-.757c0-.417.342-.757.762-.757s.762.34.762.757zM4.061 23.787a.576.576 0 0 1-.808.001.565.565 0 0 1 0-.799l.91-.907.805.802-.907.903zm3.04 3.532a.576.576 0 0 1-.809.001.563.563 0 0 1 0-.799l.911-.907.806.802-.908.904zm3.294-3.282-.002.001-1.669 1.665-.806-.802 1.668-1.66.002-.001a.484.484 0 0 0 .085-.128c.007-.013.019-.024.025-.038.016-.039.018-.081.024-.122.003-.023.013-.045.013-.069 0-.034-.012-.067-.019-.1-.006-.03-.006-.061-.018-.09a.515.515 0 0 0-.086-.13c-.01-.011-.013-.025-.024-.036h-.001l-.001-.002-1.52-1.514c-.016-.016-.037-.023-.055-.036a.49.49 0 0 0-.082-.055.485.485 0 0 0-.088-.031.537.537 0 0 0-.097-.019.45.45 0 0 0-.09.005.53.53 0 0 0-.098.019c-.032.01-.06.026-.089.042-.019.011-.04.014-.058.027l-1.677 1.252-.852-.849 2.269-2.257 4.125 4.057-.877.869zm6.45-6.637c-.015-.002-.028.004-.043.003a.5.5 0 0 0-.283.071.485.485 0 0 0-.079.058c-.012.011-.027.016-.038.028l-4.444 4.868-4.094-4.027 2.68-2.666a.506.506 0 0 0-.359-.862l-2.099.013.026-1.521 2.936.025a6.574 6.574 0 0 0 4.712 1.987 6.61 6.61 0 0 0 1.21-.116c.038.03.075.061.123.08l2.279.908.313 1.555-2.84-.404zm3.823.168-.296-1.474 1.368-1.022.896 1.189-1.968 1.307zm3.551-2.678-.793.743-.881-1.169.787-.603a.692.692 0 0 1 .514-.135.675.675 0 0 1 .373 1.165z"/><path fill="#212121" style="fill:var(--color1, #212121)" d="m14.597 17.542-2.027-2.018a.505.505 0 0 0-.712 0l-2.027 2.018a.505.505 0 0 0 0 .716l2.027 2.018a.504.504 0 0 0 .712 0l2.027-2.018a.506.506 0 0 0 0-.716zm-2.383 1.664L10.902 17.9l1.312-1.306 1.312 1.306-1.312 1.306zM17.966 4.797l-.244.98c.067.017 1.644.427 1.644 2.033h1.009c0-1.908-1.576-2.805-2.409-3.012zM20.375 8.818h-1.009v1.009h1.009V8.818z"/></symbol><symbol id="icon-clock" viewBox="0 0 32 32"><path fill="#212121" style="fill:var(--color1, #212121)" d="M31.297 15.301C31.295 6.849 24.442-.002 15.989 0S.686 6.855.688 15.308a15.304 15.304 0 0 0 10.649 14.576.662.662 0 0 0 .529-.065.637.637 0 0 0 .283-.356l3.865-12.25a1.912 1.912 0 1 0-.84-3.635l-5.106-5.107a.637.637 0 0 0-.902.902l5.103 5.109a1.876 1.876 0 0 0 .536 2.309l-3.683 11.673C3.844 25.783.118 17.71 2.799 10.432S13.553-.572 20.831 2.109s11.004 10.754 8.323 18.032a14.042 14.042 0 0 1-7.462 7.973l-.398-1.874a.638.638 0 0 0-1.048-.344l-3.837 3.426a.637.637 0 0 0 .231 1.084l4.899 1.563a.638.638 0 0 0 .819-.74l-.391-1.839a15.255 15.255 0 0 0 9.329-14.089zm-15.305-.637a.638.638 0 1 1 0 1.277.638.638 0 0 1 0-1.277zm2.101 14.864 2.184-1.948.603 2.84-2.787-.892z"/><path fill="#2196f3" style="fill:var(--color2, #2196f3)" d="M15.354 3.185V4.46a.638.638 0 1 0 1.276 0V3.185a.638.638 0 0 0-1.276 0zM3.876 14.664a.638.638 0 0 0 0 1.276h1.275a.638.638 0 1 0 0-1.276H3.876zM28.108 15.939a.638.638 0 1 0 0-1.276h-1.275a.638.638 0 0 0 0 1.276h1.275z"/></symbol><symbol id="icon-diagram" viewBox="0 0 32 32"><path fill="#2196f3" style="fill:var(--color2, #2196f3)" d="M14.926 14.965h1.066v4.798h-1.066v-4.797zM19.19 17.097h1.066v2.665H19.19v-2.665zM10.661 18.696h1.066v1.066h-1.066v-1.066zM7.463 18.163h1.066v1.599H7.463v-1.599z"/><path fill="#212121" style="fill:var(--color1, #212121)" d="M1.599 28.291h25.587a1.6 1.6 0 0 0 1.599-1.599V24.56a1.6 1.6 0 0 0-1.599-1.599h-.533V9.668L29.681 6.8a1.608 1.608 0 1 0-.746-.763L26.654 8.2V6.97a1.6 1.6 0 0 0-1.599-1.599H3.733A1.6 1.6 0 0 0 2.134 6.97v15.992h-.533a1.6 1.6 0 0 0-1.599 1.599v2.132a1.6 1.6 0 0 0 1.599 1.599zM30.384 4.837a.533.533 0 1 1 0 1.067.533.533 0 0 1 0-1.067zM3.198 6.969c0-.294.239-.533.533-.533h21.322c.294 0 .533.239.533.533v2.239l-1.066 1.013V8.035a.533.533 0 0 0-.533-.533H4.797a.533.533 0 0 0-.533.533v13.326c0 .294.239.533.533.533h19.19a.533.533 0 0 0 .533-.533v-9.674l1.066-1.01v12.284H3.198V6.969zm4.798 6.93a1.598 1.598 0 1 0 1.107 2.749l1.853.93a.532.532 0 0 0 .636-.123l3.939-4.431 3.872 2.901a.533.533 0 0 0 .686-.039l3.365-3.188v8.131H5.33V8.569h18.124v2.66l-3.771 3.572-3.904-2.927a.533.533 0 0 0-.718.072l-3.993 4.493-1.493-.746c.011-.064.018-.129.02-.193a1.6 1.6 0 0 0-1.599-1.599zm.533 1.599a.533.533 0 1 1-1.067 0 .533.533 0 0 1 1.067 0zm3.198 8.529h5.331v.533a.533.533 0 0 1-.533.533h-4.264a.533.533 0 0 1-.533-.533v-.533zm-10.661.533c0-.294.239-.533.533-.533h9.062v.533a1.6 1.6 0 0 0 1.599 1.599h4.264a1.6 1.6 0 0 0 1.599-1.599v-.533h9.062c.294 0 .533.239.533.533v2.132a.533.533 0 0 1-.533.533H1.598a.533.533 0 0 1-.533-.533V24.56z"/></symbol></defs></svg>